# xmcd
#
# Track frame offsets: 
#        150
#        12313
#        30568
#        43980
#        56185
#        71273
#        83738
#        95743
#        111133
#        129385
#        141440
#        157435
#        171363
#        182468
#        195228
#        213725
#
# Disc length: 3070 seconds
#
# Revision: 28
# Processed by: cddbd v1.5.2PL0 Copyright (c) Steve Scherf et al.
# Submitted via: ExactAudioCopy v1.1
#
DISCID=ea0bfc10
DTITLE=Björk Gudmundsdóttir and Tríó Gudmundar Ingólfssonar - Gling-Gló
DYEAR=1990
DGENRE=Jazz
TTITLE0=Gling Gló
TTITLE1=Luktar-Gvendur
TTITLE2=Kata Rokkar
TTITLE3=Pabbi Minn
TTITLE4=Brestir Og Brak
TTITLE5=Ástartöfrar
TTITLE6=Bella Símamær
TTITLE7=Litli Tónlistarmadurinn
TTITLE8=Dad Sést Ekki Sætari Mey
TTITLE9=Bílavísur
TTITLE10=Tondeleyo
TTITLE11=Ég Veit Ei Hvad Skal Segja
TTITLE12=Í Dansi Med Dér
TTITLE13=Börnin Vid Tjörnina
TTITLE14=Ruby Baby
TTITLE15=I Can't Help Loving That Man
EXTD=YEAR: 1990
EXTT0=
EXTT1=
EXTT2=
EXTT3=
EXTT4=
EXTT5=
EXTT6=
EXTT7=
EXTT8=
EXTT9=
EXTT10=
EXTT11=
EXTT12=
EXTT13=
EXTT14=
EXTT15=
PLAYORDER=
